<svg width="69" height="30" viewBox="0 0 69 30" fill="none" xmlns="http://www.w3.org/2000/svg">
    <path d="M42.5237 14.8954H41.6128C40.4085 14.8954 39.2033 14.8935 37.9991 14.8983C37.8659 14.8983 37.8119 14.8703 37.7801 14.7295C37.176 12.0141 36.5642 9.30076 35.9206 6.58062C35.2992 9.34515 34.6788 12.1097 34.0525 14.8954H33.8837C32.4276 14.8954 30.9715 14.8935 29.5154 14.8983C29.3861 14.8983 29.336 14.8626 29.306 14.7362C28.2726 10.2888 27.2353 5.84149 26.199 1.39509C26.1912 1.36132 26.1855 1.32754 26.1777 1.28412H30.2604C30.7544 4.33523 31.2484 7.38344 31.7425 10.4326C31.755 10.4326 31.7676 10.4336 31.7792 10.4346C32.47 7.3873 33.1609 4.34005 33.8528 1.28605H38.001C38.6919 4.30725 39.3818 7.32844 40.0727 10.3506C40.0959 10.3516 40.119 10.3525 40.1412 10.3535C40.6314 7.33423 41.1216 4.31593 41.6128 1.28702H45.7012C44.6426 5.82122 43.5851 10.3506 42.5237 14.8974V14.8954Z" fill="#000814"/>
    <path d="M60.8382 9.89408V14.8837H57.0566V1.28594C57.0952 1.28209 57.1387 1.27437 57.183 1.27437C59.2055 1.27437 61.229 1.26858 63.2515 1.28208C64.1778 1.28787 65.0771 1.45577 65.9089 1.89095C67.2666 2.60211 67.97 3.74748 68.1003 5.25084C68.1997 6.40104 67.9324 7.45281 67.1595 8.34344C66.6509 8.92819 66.0035 9.29872 65.2749 9.53899C65.2199 9.55733 65.164 9.57566 65.109 9.59592C65.0993 9.59978 65.0916 9.61136 65.0733 9.62873C66.0971 11.3743 67.1218 13.1218 68.162 14.8944H67.9768C66.6963 14.8944 65.4158 14.8924 64.1354 14.8972C64.0128 14.8972 63.9501 14.8577 63.8932 14.7525C63.0527 13.2115 62.2065 11.6725 61.3631 10.1334C61.2583 9.94298 61.0833 9.86288 60.8382 9.89312V9.89408ZM60.8478 7.35439C61.6323 7.33413 62.4091 7.33027 63.182 7.28685C63.5284 7.26755 63.8449 7.10544 64.0379 6.80149C64.3563 6.30069 64.365 5.76033 64.1383 5.22672C63.925 4.72592 63.4879 4.51943 62.9726 4.4953C62.4245 4.46925 61.8736 4.48179 61.3245 4.47793C61.1682 4.47697 61.0109 4.47793 60.8469 4.47793V7.35535L60.8478 7.35439Z" fill="#000814"/>
    <path d="M0.844669 14.891C0.842739 14.8273 0.839844 14.7627 0.839844 14.699C0.839844 10.2902 0.839844 5.88148 0.839844 1.47271C0.839844 1.40903 0.843704 1.34438 0.844669 1.28069C2.37119 1.27876 3.89674 1.2749 5.42326 1.27683C6.00801 1.2778 6.59276 1.27876 7.17654 1.30964C7.90603 1.34824 8.61236 1.50842 9.26947 1.83746C10.3 2.35273 10.9967 3.16424 11.3257 4.26522C11.6673 5.4048 11.6615 6.55114 11.2071 7.66274C10.6358 9.05899 9.53097 9.83094 8.10191 10.1571C7.58278 10.2758 7.03856 10.3086 6.50302 10.3337C5.88546 10.3626 5.26501 10.3404 4.62719 10.3404V14.891H0.843703H0.844669ZM4.63009 7.33177C5.24571 7.33177 5.84204 7.36458 6.43354 7.32405C7.19777 7.27098 7.61076 6.83579 7.70436 6.07736C7.8269 5.08348 7.33382 4.42636 6.37372 4.36268C5.80441 4.32505 5.23028 4.35014 4.65807 4.34821C4.64939 4.34821 4.6407 4.36171 4.63009 4.3704V7.33273V7.33177Z" fill="#000814"/>
    <path d="M55.3103 11.8696V14.885H46.5371V1.28723H55.3083V4.29878H50.338V6.53935H54.7332V9.41194H50.3389V11.8706H55.3112L55.3103 11.8696Z" fill="#000814"/>
    <path d="M26.4235 9.12369C25.8812 9.12369 25.3553 9.12659 24.8304 9.1179C24.787 9.1179 24.7262 9.03878 24.704 8.98378C24.4637 8.38842 24.2263 7.79209 23.9967 7.19287C23.9504 7.07225 23.8886 7.03944 23.7583 7.02111C23.3955 6.97093 23.1746 7.10506 22.9796 7.4177C22.6593 7.93297 22.2868 8.41447 21.9356 8.90948C21.9028 8.9558 21.8661 8.99922 21.8082 9.07448C21.3383 6.78277 20.8761 4.52484 20.412 2.26111H19.144C18.8189 5.18485 18.4947 8.10183 18.1695 11.0198C18.1579 11.0217 18.1463 11.0236 18.1347 11.0256C18.0643 10.8307 17.9939 10.6367 17.9244 10.4418C17.6272 9.60616 17.3271 8.7715 17.0357 7.93394C16.9961 7.82007 16.9411 7.79498 16.8253 7.78148C16.4702 7.73998 16.2097 7.8413 15.9926 8.14429C15.7697 8.45596 15.4918 8.73 15.2284 9.0108C15.1734 9.06966 15.073 9.11694 14.9929 9.1179C14.1505 9.12562 13.3082 9.11983 12.4667 9.12562C12.3394 9.12562 12.2959 9.08703 12.2815 8.96352C11.854 5.32573 14.1525 1.989 17.7237 1.16109C20.1592 0.596608 22.3524 1.17074 24.1984 2.85744C25.885 4.39843 26.6107 6.35435 26.4823 8.62772C26.4737 8.78886 26.4447 8.94904 26.4235 9.12177V9.12369Z" fill="#FFC300"/>
    <path d="M19.054 14.0855C19.3483 11.4416 19.6407 8.81123 19.9331 6.18083C19.9446 6.1789 19.9562 6.17697 19.9688 6.17407C20.3171 7.87428 20.6664 9.57352 21.0196 11.2969C21.2415 11.2969 21.4625 11.3036 21.6815 11.2911C21.7298 11.2882 21.7838 11.2236 21.8185 11.1753C22.3 10.4999 22.7777 9.82247 23.2572 9.14606C23.2929 9.09588 23.3325 9.04764 23.3875 8.9743C23.5467 9.37668 23.7021 9.74721 23.8372 10.1245C23.897 10.2914 23.9732 10.3551 24.1604 10.3503C24.7452 10.3349 25.3299 10.3445 25.9147 10.3445H26.1067C25.4708 12.5725 22.9813 15.2927 19.1862 15.2068C17.3702 15.1653 15.7916 14.5043 14.4658 13.2634C13.6031 12.4567 12.9865 11.4879 12.5977 10.3445H12.8389C13.7334 10.3445 14.6279 10.3474 15.5224 10.3397C15.6073 10.3397 15.7115 10.2885 15.7723 10.2268C15.9595 10.0367 16.1303 9.83116 16.331 9.60536C16.413 9.82923 16.4844 10.0222 16.5539 10.2171C16.9891 11.4426 17.4271 12.668 17.8565 13.8954C17.9067 14.0373 17.9685 14.0961 18.1267 14.0884C18.4287 14.074 18.7327 14.0846 19.054 14.0846V14.0855Z" fill="#FFC300"/>
    <path d="M19.1917 29.0493C19.0479 29.0165 18.9061 28.9779 18.7613 28.9528C16.7861 28.6093 15.4304 27.1831 15.1959 25.1828C15.1486 24.7785 15.1245 24.3684 15.1235 23.9612C15.1158 21.9705 15.1206 19.9799 15.1206 17.9892V17.7866H18.2161V17.9854C18.2161 19.9992 18.2103 22.013 18.2219 24.0268C18.2238 24.3558 18.2624 24.6936 18.3464 25.011C18.5124 25.645 18.9418 26.0203 19.6018 26.0831C19.871 26.1091 20.1556 26.1033 20.4191 26.0454C21.1264 25.8891 21.4544 25.3748 21.576 24.7052C21.6117 24.5054 21.6223 24.2989 21.6223 24.0953C21.6252 22.0641 21.6243 20.033 21.6243 18.0008C21.6243 17.9323 21.6243 17.8638 21.6243 17.7847H24.7275V17.969C24.7275 20.0474 24.7323 22.1249 24.7255 24.2034C24.7217 25.15 24.5461 26.0609 24.0491 26.8859C23.3023 28.1249 22.1666 28.7579 20.7674 28.9808C20.6632 28.9972 20.5599 29.0261 20.4567 29.0493H20.3168C20.2647 29.0367 20.2116 29.0155 20.1595 29.0145C19.9607 29.0107 19.7619 29.0116 19.5641 29.0155C19.5111 29.0165 19.458 29.0377 19.4049 29.0493H19.1946H19.1917Z" fill="#000814"/>
    <path d="M0.838856 28.9798C0.838856 25.2668 0.838856 21.5528 0.838856 17.8397C0.856225 17.8359 0.872629 17.8301 0.889998 17.8301C2.55064 17.833 4.21129 17.8262 5.87193 17.8455C6.52519 17.8532 7.16301 17.9912 7.75065 18.2913C8.8169 18.8346 9.40261 19.7242 9.57051 20.8928C9.68051 21.656 9.62647 22.4087 9.31094 23.1246C8.8169 24.2478 7.91083 24.8615 6.74712 25.1192C6.34571 25.2079 5.92597 25.2349 5.51298 25.2523C4.99481 25.2745 4.47375 25.2571 3.93628 25.2571V28.9847C3.89093 28.9876 3.86391 28.9914 3.83593 28.9914C2.871 28.9914 1.90607 28.9914 0.941139 28.9914C0.906401 28.9914 0.871663 28.9847 0.837891 28.9808L0.838856 28.9798ZM3.94883 20.3678V22.812C4.30778 22.812 4.65226 22.812 4.99674 22.812C5.09613 22.812 5.19552 22.812 5.2949 22.8053C5.94141 22.7599 6.32352 22.4743 6.43448 21.9349C6.46826 21.7709 6.47115 21.5981 6.46247 21.4302C6.43159 20.8243 6.09966 20.4315 5.49754 20.3775C4.98902 20.3321 4.47278 20.3678 3.94883 20.3678Z" fill="#000814"/>
    <path d="M67.6127 20.3107H63.5581V22.1469H67.1496V24.4907H63.5562V26.5094H67.6166V28.9796H60.4375V17.8395H67.6127V20.3116V20.3107Z" fill="#000814"/>
    <path d="M53.395 26.508V28.9802H45.2626C45.2597 28.9329 45.2529 28.8827 45.2529 28.8325C45.2529 28.1493 45.2491 27.4671 45.2568 26.784C45.2577 26.6933 45.2934 26.5881 45.3465 26.5148C46.8055 24.5087 48.2693 22.5055 49.7321 20.5013C49.7688 20.4511 49.8045 20.399 49.8605 20.3189H45.2963V17.841H53.3902V18.5994C53.3902 19.0723 53.395 19.5451 53.3863 20.0179C53.3844 20.1144 53.3506 20.2263 53.2937 20.3035C51.8077 22.3192 50.3169 24.3321 48.828 26.3449C48.7952 26.3903 48.7653 26.4376 48.717 26.509H53.395V26.508Z" fill="#000814"/>
    <path d="M34.4373 26.641H37.9187V28.9838H31.3398V17.8379H34.4363V26.641H34.4373Z" fill="#000814"/>
</svg>
